<?xml version="1.0" encoding="UTF-8"?>
<svg version="1.1" xmlns="http://www.w3.org/2000/svg" width="532" height="469">
<path d="M0 0 C2.77632228 0.77012203 5.45208327 1.33976448 8.2890625 1.8046875 C28.6391525 5.70369634 47.8824861 16.28726382 65.3515625 26.9296875 C66.14046875 27.39246094 66.929375 27.85523438 67.7421875 28.33203125 C85.36093009 39.11955478 101.01581661 53.21646232 114.3515625 68.9296875 C115.125 69.82558594 115.8984375 70.72148438 116.6953125 71.64453125 C125.5091602 81.99536166 133.15839059 92.7815426 139.3515625 104.9296875 C139.80547363 105.80101318 139.80547363 105.80101318 140.26855469 106.68994141 C150.36598941 126.07601136 157.89957991 145.68750502 162.1015625 167.1796875 C162.41794678 168.79508423 162.41794678 168.79508423 162.74072266 170.44311523 C165.04855049 182.81053553 165.56069286 194.99059397 165.5390625 207.5546875 C165.53812592 208.26133545 165.53718933 208.9679834 165.53622437 209.69604492 C165.50510848 220.55196415 165.23890798 231.21735923 163.3515625 241.9296875 C163.19026855 242.84621094 163.02897461 243.76273438 162.86279297 244.70703125 C159.64894153 262.37603397 154.70307469 278.65840239 147.7265625 295.1796875 C147.3543457 296.06164795 146.98212891 296.9436084 146.59863281 297.85229492 C144.55583916 302.55752964 142.30835128 306.71283261 139.3515625 310.9296875 C138.65407667 312.24716074 137.98196293 313.57882943 137.3515625 314.9296875 C135.68047568 318.51058784 133.56947069 321.66015082 131.3515625 324.9296875 C130.52560065 326.18244624 129.70145616 327.43640463 128.87890625 328.69140625 C128.01566314 330.00002516 127.15238144 331.30861861 126.2890625 332.6171875 C125.85529297 333.28041016 125.42152344 333.94363281 124.97460938 334.62695312 C124.55115234 335.26697266 124.12769531 335.90699219 123.69140625 336.56640625 C123.31363037 337.14092529 122.93585449 337.71544434 122.54663086 338.30737305 C121.28043333 340.0262459 119.8857489 341.44870689 118.3515625 342.9296875 C117.28109294 344.15191983 116.21915258 345.38165447 115.1640625 346.6171875 C111.41862271 350.92483918 107.42480978 354.93427297 103.3515625 358.9296875 C102.5059375 359.7753125 101.6603125 360.6209375 100.7890625 361.4921875 C99.9846875 362.2965625 99.1803125 363.1009375 98.3515625 363.9296875 C97.81917969 364.47367187 97.28679687 365.01765625 96.73828125 365.578125 C93.76870429 368.59379295 90.75656353 371.54499249 87.6015625 374.3671875 C87.04984375 374.86089844 86.498125 375.35460937 85.9296875 375.86328125 C84.3515625 376.9296875 84.3515625 376.9296875 81.3515625 376.9296875 C81.0215625 377.9196875 80.6915625 378.9096875 80.3515625 379.9296875 C75.73140243 383.74441737 70.53493526 386.98652081 65.28125 389.85546875 C63.8096452 390.67468195 62.36016523 391.5337704 60.921875 392.41015625 C45.29669391 401.8675027 28.86529769 408.80722214 11.3515625 413.9296875 C10.53026855 414.17203125 9.70897461 414.414375 8.86279297 414.6640625 C-16.45162727 421.92123255 -43.40722227 423.30312478 -69.5234375 420.8046875 C-70.18431366 420.74166443 -70.84518982 420.67864136 -71.52609253 420.6137085 C-91.63806889 418.64068959 -112.75823623 414.4844136 -130.7421875 404.8828125 C-132.91361043 403.79710104 -135.1243856 402.96635878 -137.3984375 402.1171875 C-143.538604 399.72356327 -149.02286602 396.32896899 -154.6484375 392.9296875 C-155.89558674 392.21634686 -157.14506366 391.50703366 -158.3984375 390.8046875 C-160.97149566 389.32023087 -163.53920336 387.8336169 -166.0859375 386.3046875 C-166.76527344 385.89992188 -167.44460937 385.49515625 -168.14453125 385.078125 C-168.64082031 384.69914062 -169.13710937 384.32015625 -169.6484375 383.9296875 C-169.6484375 383.2696875 -169.6484375 382.6096875 -169.6484375 381.9296875 C-170.21304688 381.836875 -170.77765625 381.7440625 -171.359375 381.6484375 C-174.23183625 380.74650427 -175.94732988 379.33906574 -178.2734375 377.4296875 C-179.14226562 376.71683594 -180.01109375 376.00398438 -180.90625 375.26953125 C-184.54847557 372.16170629 -188.09810093 368.96108975 -191.6171875 365.71484375 C-193.525252 363.88522812 -193.525252 363.88522812 -195.6484375 362.9296875 C-195.6484375 362.2696875 -195.6484375 361.6096875 -195.6484375 360.9296875 C-196.22464844 360.68734375 -196.80085938 360.445 -197.39453125 360.1953125 C-209.10727493 353.61831259 -219.21633805 335.93743177 -226.6484375 324.9296875 C-227.17050781 324.17171875 -227.69257813 323.41375 -228.23046875 322.6328125 C-233.17785943 315.36828947 -237.21276689 308.02069178 -240.6484375 299.9296875 C-241.18082031 298.76953125 -241.71320313 297.609375 -242.26171875 296.4140625 C-264.72745191 247.40090504 -267.81144677 187.4496302 -249.0859375 136.7421875 C-248.20905698 134.44653661 -247.31795645 132.15750377 -246.41357422 129.87255859 C-245.77453046 128.24986867 -245.16310653 126.61633666 -244.55859375 124.98046875 C-241.92045658 117.94921046 -238.32361434 111.46591973 -234.6484375 104.9296875 C-233.79378906 103.40794922 -233.79378906 103.40794922 -232.921875 101.85546875 C-221.45922047 81.83507898 -221.45922047 81.83507898 -217.6484375 79.9296875 C-216.6305843 78.27386364 -215.63380422 76.60504722 -214.6484375 74.9296875 C-213.3255935 73.13533475 -211.97064243 71.36424512 -210.5859375 69.6171875 C-209.89371094 68.73417969 -209.20148438 67.85117188 -208.48828125 66.94140625 C-207.88113281 66.27753906 -207.27398437 65.61367187 -206.6484375 64.9296875 C-205.9884375 64.9296875 -205.3284375 64.9296875 -204.6484375 64.9296875 C-204.32166016 64.11564453 -204.32166016 64.11564453 -203.98828125 63.28515625 C-202.1950122 60.1325579 -199.77746223 57.76270848 -197.2109375 55.2421875 C-196.68177734 54.71834473 -196.15261719 54.19450195 -195.60742188 53.65478516 C-183.40075626 41.73478024 -183.40075626 41.73478024 -177.5859375 38.9375 C-175.52838936 37.99329288 -175.52838936 37.99329288 -173.86328125 36.12109375 C-158.86074244 21.27731196 -135.55295923 11.94707225 -115.82006836 5.65039062 C-113.67777386 4.93942341 -111.58069878 4.15222104 -109.4765625 3.3359375 C-103.70200851 1.13964805 -97.69922303 0.10353989 -91.6484375 -1.0703125 C-90.63136719 -1.27188965 -90.63136719 -1.27188965 -89.59375 -1.47753906 C-60.82167522 -7.13301659 -28.40781673 -7.9264173 0 0 Z " fill="#FBF8F6" transform="translate(320.6484375,19.0703125)"/>
<path d="M0 0 C2.70878529 1.35439264 2.81982702 2.63787654 3.875 5.4453125 C4.22046875 6.35796875 4.5659375 7.270625 4.921875 8.2109375 C5.27765625 9.17257813 5.6334375 10.13421875 6 11.125 C6.35578125 12.0634375 6.7115625 13.001875 7.078125 13.96875 C12.28797555 27.84872497 12.28797555 27.84872497 12.25 35.1875 C12.25773437 36.69376953 12.25773437 36.69376953 12.265625 38.23046875 C12 41 12 41 10 45 C24.19 45 38.38 45 53 45 C53 56.88 53 68.76 53 81 C28.58 81 4.16 81 -21 81 C-21 93.21 -21 105.42 -21 118 C3.09 118 27.18 118 52 118 C52 129.22 52 140.44 52 152 C27.91 152 3.82 152 -21 152 C-21 164.54 -21 177.08 -21 190 C3.42 190 27.84 190 53 190 C53 201.55 53 213.1 53 225 C15.05 225 -22.9 225 -62 225 C-62 176.82 -62 128.64 -62 79 C-65.3 79 -68.6 79 -72 79 C-77.66454071 77.93964263 -82.64048903 76.09179151 -86.375 71.5625 C-89.18997471 67.20331058 -90.94995002 62.46760647 -92.69921875 57.6015625 C-94.3748513 52.96212342 -96.24273513 48.40971597 -98.12109375 43.84936523 C-100 39.21699604 -100 39.21699604 -100 37 C-95.41376193 37.24024255 -90.82807539 37.48888093 -86.24267578 37.74462891 C-84.68940962 37.83015624 -83.13602488 37.91356207 -81.58251953 37.99462891 C-73.87247727 38.39832213 -66.26971007 38.87842675 -58.6328125 40.0703125 C-47.80569015 42.21425312 -47.80569015 42.21425312 -37.58349609 39.52734375 C-35.25973984 37.47807898 -33.2286354 35.32995702 -31.1875 33 C-30.48947266 32.25621094 -29.79144531 31.51242188 -29.07226562 30.74609375 C-25.79776175 27.23005317 -22.65672721 23.60360107 -19.515625 19.96875 C-15.72500162 15.61501308 -11.66715535 11.55583512 -7.5625 7.5 C-6.83095703 6.77296875 -6.09941406 6.0459375 -5.34570312 5.296875 C-3.56610176 3.52890501 -1.78419082 1.76333622 0 0 Z " fill="#34461F" transform="translate(278,117)"/>
<path d="M0 0 C1.34545094 0.12991708 2.69099359 0.25888756 4.03662109 0.38696289 C5.04350983 0.49308395 5.04350983 0.49308395 6.07073975 0.60134888 C8.89976214 0.87951969 11.73136164 1.01510105 14.5703125 1.15234375 C31.57273343 2.10886348 48.39570628 3.89063186 65.28833008 6.02832031 C66.99945259 6.24330969 68.71063317 6.45783747 70.421875 6.671875 C71.24333511 6.77523163 72.06479523 6.87858826 72.91114807 6.9850769 C79.28574496 7.76262967 85.63768529 8.20234338 92.05297852 8.46459961 C94.88616522 8.7782064 96.60837667 9.32500437 99.01953125 10.79296875 C92.88302344 18.06737205 86.17738842 24.69716915 79.40234375 31.37109375 C75.03062971 35.70294413 70.83465027 40.08555403 66.82910156 44.75634766 C63.2007893 48.83991227 59.27540188 52.63901321 55.39453125 56.48046875 C54.14542969 57.72280273 54.14542969 57.72280273 52.87109375 58.99023438 C49.65603316 62.18737663 46.43718058 65.3805473 43.2109375 68.56640625 C40.92247241 70.89158468 38.74575215 73.28905105 36.58203125 75.73046875 C35.39480469 77.02210938 35.39480469 77.02210938 34.18359375 78.33984375 C32.05559681 80.64345691 32.05559681 80.64345691 30.66796875 82.80859375 C29.22702128 84.7980309 28.25270568 85.74050239 26.01953125 86.79296875 C20.628156 87.23688013 15.36374874 86.44824641 10.01953125 85.79296875 C6.64935851 85.41717312 3.27814423 85.05181381 -0.09326172 84.68725586 C-2.53285448 84.4227947 -4.97198377 84.15402515 -7.41064453 83.88110352 C-14.4376693 83.10936294 -21.4165334 82.54271103 -28.48046875 82.29296875 C-38.4437552 81.9396388 -48.16060118 80.4539889 -57.98046875 78.79296875 C-55.3333538 87.03845021 -52.55276531 95.11145711 -49.09765625 103.0625 C-48.04441985 105.63666867 -47.24605298 108.18452603 -46.48046875 110.85546875 C-45.22973088 114.8968703 -43.58977099 115.64689715 -39.98046875 117.79296875 C-40.03589844 118.85644531 -40.09132812 119.91992188 -40.1484375 121.015625 C-39.93108969 125.90342353 -38.39869023 127.21098492 -34.98046875 130.60546875 C-29.98046875 135.64019097 -29.98046875 135.64019097 -29.98046875 137.79296875 C-32.08218742 138.63245695 -34.186935 139.46436531 -36.29296875 140.29296875 C-37.46472656 140.75703125 -38.63648438 141.22109375 -39.84375 141.69921875 C-42.98046875 142.79296875 -42.98046875 142.79296875 -45.98046875 142.79296875 C-46.02945313 141.51679688 -46.0784375 140.240625 -46.12890625 138.92578125 C-46.20393066 137.25648803 -46.27947863 135.58721829 -46.35546875 133.91796875 C-46.38640625 133.07621094 -46.41734375 132.23445312 -46.44921875 131.3671875 C-46.50722656 130.15869141 -46.50722656 130.15869141 -46.56640625 128.92578125 C-46.59782715 128.18215332 -46.62924805 127.43852539 -46.66162109 126.67236328 C-46.83466426 124.55285901 -46.83466426 124.55285901 -48.98046875 122.79296875 C-49.08224682 120.66005447 -48.91309296 118.60113473 -48.7578125 116.47265625 C-49.07877426 112.60985327 -50.53478904 109.36371862 -51.98046875 105.79296875 C-52.47262064 104.49625412 -52.96098186 103.19809367 -53.4453125 101.8984375 C-53.68620605 101.25777344 -53.92709961 100.61710937 -54.17529297 99.95703125 C-56.82024083 92.91774859 -59.43226072 85.8679934 -61.98046875 78.79296875 C-62.9446875 78.73238281 -63.90890625 78.67179687 -64.90234375 78.609375 C-66.79726562 78.48369141 -66.79726562 78.48369141 -68.73046875 78.35546875 C-70.60992187 78.23365234 -70.60992187 78.23365234 -72.52734375 78.109375 C-75.16364428 77.86781353 -77.46084169 77.55012941 -79.98046875 76.79296875 C-78.38212235 72.80211787 -75.5843993 70.15769798 -72.5625 67.21484375 C-72.02703049 66.68457581 -71.49156097 66.15430786 -70.93986511 65.60797119 C-69.22893123 63.91479819 -67.51148107 62.22844667 -65.79296875 60.54296875 C-63.54605234 58.33287654 -61.30237886 56.11956829 -59.0625 53.90234375 C-58.51840485 53.36383789 -57.97430969 52.82533203 -57.41372681 52.27050781 C-54.04940749 48.9189172 -50.88526271 45.46243944 -47.80737305 41.84472656 C-43.1221535 36.58285498 -37.96468564 31.73047734 -32.95068359 26.78369141 C-26.23481328 20.14974824 -19.5932405 13.52809054 -13.85546875 6.0078125 C-9.54916613 0.77744911 -6.82001578 -0.73997782 0 0 Z " fill="#33441D" transform="translate(209.98046875,68.20703125)"/>
<path d="M0 0 C0.495 0.99 0.495 0.99 1 2 C0 5 0 5 -3 7 C-3.33 7.99 -3.66 8.98 -4 10 C-3.34 10 -2.68 10 -2 10 C-3.11703524 12.23407049 -4.17321802 13.09128787 -6.09375 14.6640625 C-10.10401014 18.03800075 -13.80916828 21.65771409 -17.5 25.375 C-18.16362549 26.04055908 -18.82725098 26.70611816 -19.51098633 27.3918457 C-22.66908724 30.57802209 -25.77536704 33.77203542 -28.6875 37.1875 C-29.44546875 38.05955078 -29.44546875 38.05955078 -30.21875 38.94921875 C-31.23770517 40.12235793 -32.2515943 41.30004586 -33.25 42.49072266 C-34.69665616 44.19205058 -36.18730277 45.84581299 -37.6875 47.5 C-38.13246826 48.04164795 -38.57743652 48.5832959 -39.03588867 49.14135742 C-41.42021555 51.69702304 -43.11688762 52.86855658 -46.62280273 53.39038086 C-54.01572291 53.49763001 -61.367889 52.51189871 -68.6875 51.5625 C-77.69890875 50.45048945 -86.636093 49.59306328 -95.70703125 49.2109375 C-98.57306819 49.02734795 -101.20793676 48.64882231 -104 48 C-102.515 47.505 -102.515 47.505 -101 47 C-101 46.01 -101 45.02 -101 44 C-92.660768 43.78107533 -84.58933341 44.46957157 -76.3125 45.4375 C-73.82949391 45.69855311 -71.34642126 45.95897385 -68.86328125 46.21875 C-64.89356819 46.6466815 -60.97335553 47.14353263 -57.04296875 47.84375 C-50.46098789 48.97462776 -50.46098789 48.97462776 -44.26806641 46.953125 C-40.2734607 43.79106009 -37.11318084 40.00470979 -34 36 C-32.38044803 33.94048418 -30.73615314 31.96685151 -29 30 C-28.34 30 -27.68 30 -27 30 C-26.77634766 29.44965088 -26.55269531 28.89930176 -26.32226562 28.33227539 C-24.58341006 25.26519873 -22.35905208 23.15385658 -19.84375 20.68359375 C-19.34081421 20.18585953 -18.83787842 19.68812531 -18.31970215 19.17530823 C-16.71783155 17.59119166 -15.10942052 16.01394256 -13.5 14.4375 C-11.89146581 12.85663279 -10.28443388 11.27431037 -8.68029785 9.6889801 C-7.22566658 8.25216035 -5.76626984 6.82016992 -4.30664062 5.38842773 C-1.88951981 3.02820448 -1.88951981 3.02820448 0 0 Z " fill="#EAEAE3" transform="translate(282,106)"/>
<path d="M0 0 C1.93808713 2.90713069 2.78102154 5.13237966 3.8125 8.4375 C5.5535822 13.81666442 7.60750919 18.97563678 9.84765625 24.1640625 C10.90889745 26.77579507 11.72466626 29.35540252 12.5 32.0625 C13.75073787 36.10390155 15.39069776 36.8539284 19 39 C18.94457031 40.06347656 18.88914063 41.12695312 18.83203125 42.22265625 C19.04937906 47.11045478 20.58177852 48.41801617 24 51.8125 C29 56.84722222 29 56.84722222 29 59 C26.89828133 59.8394882 24.79353375 60.67139656 22.6875 61.5 C21.51574219 61.9640625 20.34398437 62.428125 19.13671875 62.90625 C16 64 16 64 13 64 C12.92652344 62.08574219 12.92652344 62.08574219 12.8515625 60.1328125 C12.77653809 58.46351928 12.70099012 56.79424954 12.625 55.125 C12.5940625 54.28324219 12.563125 53.44148438 12.53125 52.57421875 C12.49257812 51.76855469 12.45390625 50.96289062 12.4140625 50.1328125 C12.3826416 49.38918457 12.3512207 48.64555664 12.31884766 47.87939453 C12.14580449 45.75989026 12.14580449 45.75989026 10 44 C9.89822193 41.86708572 10.06737579 39.80816598 10.22265625 37.6796875 C9.90166043 33.8164746 8.44709266 30.57073737 7 27 C6.4963555 25.67976997 5.9962932 24.35816727 5.5 23.03515625 C5.2539502 22.38417969 5.00790039 21.73320312 4.75439453 21.0625 C2.372016 14.7464984 0.06623205 8.42827749 -2 2 C-1.34 1.34 -0.68 0.68 0 0 Z " fill="#374526" transform="translate(151,147)"/>
<path d="M0 0 C24.09 0 48.18 0 73 0 C73 0.33 73 0.66 73 1 C49.24 1 25.48 1 1 1 C1.33 1.99 1.66 2.98 2 4 C2.0845387 6.4410776 2.11605786 8.85259213 2.09765625 11.29296875 C2.0962413 11.99899734 2.09482635 12.70502594 2.09336853 13.43244934 C2.08777764 15.68417626 2.07522688 17.93580321 2.0625 20.1875 C2.05748382 21.71549335 2.05292112 23.24348827 2.04882812 24.77148438 C2.0378112 28.51436135 2.02055287 32.25716373 2 36 C2.75453461 35.99777939 3.50906921 35.99555878 4.28646851 35.99327087 C11.43539891 35.9731426 18.58431537 35.95796237 25.73326683 35.94818783 C29.40763951 35.94299355 33.08198857 35.93595948 36.75634766 35.92456055 C40.30954848 35.91360784 43.86272673 35.90769722 47.41594315 35.90512276 C49.41535436 35.90240569 51.41475664 35.89461378 53.41415405 35.88670349 C60.34176214 35.8862817 67.12547247 36.11701536 74 37 C74 37.33 74 37.66 74 38 C49.58 38 25.16 38 0 38 C0 25.46 0 12.92 0 0 Z " fill="#CED2C3" transform="translate(257,269)"/>
<path d="M0 0 C1.93808713 2.90713069 2.78102154 5.13237966 3.8125 8.4375 C5.56754524 13.85381939 7.6154982 19.0744942 9.8515625 24.30859375 C10.23054687 25.19675781 10.60953125 26.08492187 11 27 C11.37898437 27.87785156 11.75796875 28.75570312 12.1484375 29.66015625 C13 32 13 32 13 35 C11.09375 34.78125 11.09375 34.78125 9 34 C8.09375 32.03125 8.09375 32.03125 7.5 29.5 C6.58678419 26.01990733 5.57925516 22.82617938 4.0625 19.5625 C2.49538601 16.13558146 1.00627429 12.6941694 -0.375 9.1875 C-0.73335937 8.29417969 -1.09171875 7.40085938 -1.4609375 6.48046875 C-2 4 -2 4 -1.1015625 1.67578125 C-0.73804688 1.12277344 -0.37453125 0.56976563 0 0 Z " fill="#5A5C4E" transform="translate(151,147)"/>
<path d="M0 0 C8.104869 -0.27474132 18.08734269 -0.60843821 25 4 C21.40858866 5.19713711 18.47319892 5.13248902 14.6875 5.125 C13.39199219 5.12757813 12.09648437 5.13015625 10.76171875 5.1328125 C7.40437077 5.01427685 4.2916873 4.64302729 1 4 C0.67 2.68 0.34 1.36 0 0 Z " fill="#F0F0E9" transform="translate(211,153)"/>
<path d="M0 0 C0.6875 1.6875 0.6875 1.6875 1 4 C-0.3125 6.75 -0.3125 6.75 -2 9 C-2.66 9 -3.32 9 -4 9 C-4 9.66 -4 10.32 -4 11 C-4.969375 11.2475 -5.93875 11.495 -6.9375 11.75 C-7.948125 12.1625 -8.95875 12.575 -10 13 C-10.36548445 14.32488113 -10.6937566 15.66018514 -11 17 C-12.8593733 19.05329567 -14.69433932 20.38603752 -17 22 C-17.99 21.67 -18.98 21.34 -20 21 C-18.82244141 19.83984375 -18.82244141 19.83984375 -17.62109375 18.65625 C-11.85322406 12.94713308 -6.24756889 7.19858461 -1 1 C-0.67 0.67 -0.34 0.34 0 0 Z " fill="#444F33" transform="translate(263,132)"/>
<path d="M0 0 C4.875 1.875 4.875 1.875 6 3 C6.07179964 4.51928038 6.08392007 6.04167482 6.0625 7.5625 C6.05347656 8.38878906 6.04445312 9.21507812 6.03515625 10.06640625 C6.01775391 11.02353516 6.01775391 11.02353516 6 12 C5.01 12.495 5.01 12.495 4 13 C3.67 12.34 3.34 11.68 3 11 C1.68 10.34 0.36 9.68 -1 9 C-0.67 6.03 -0.34 3.06 0 0 Z " fill="#323F20" transform="translate(162,182)"/>
<path d="M0 0 C12.17191501 -0.25897692 23.93081636 0.40218845 36 2 C36 2.33 36 2.66 36 3 C31.68755812 3.05859908 27.37522026 3.09379686 23.0625 3.125 C21.24395508 3.15013672 21.24395508 3.15013672 19.38867188 3.17578125 C12.5823144 3.21267208 6.57150148 2.80060558 0 1 C0 0.67 0 0.34 0 0 Z " fill="#666D57" transform="translate(230,71)"/>
<path d="M0 0 C11.52164009 -0.18451025 11.52164009 -0.18451025 17 1 C17 1.33 17 1.66 17 2 C13.7 2 10.4 2 7 2 C7 2.66 7 3.32 7 4 C8.32 4.33 9.64 4.66 11 5 C1.58997722 5.18451025 1.58997722 5.18451025 -3 4 C-2.01 3.67 -1.02 3.34 0 3 C0 2.01 0 1.02 0 0 Z " fill="#D4D6CA" transform="translate(181,150)"/>
<path d="M0 0 C1.30194786 3.90584359 0.70818927 5.28654507 -1 9 C-2.8829788 10.91794127 -4.82572501 12.39292718 -7 14 C-7.33 13.34 -7.66 12.68 -8 12 C-8.66 11.67 -9.32 11.34 -10 11 C-6.7 7.37 -3.4 3.74 0 0 Z " fill="#DFE1D7" transform="translate(253,136)"/>
<path d="M0 0 C0.6875 1.75 0.6875 1.75 1 4 C-0.4375 6.25 -0.4375 6.25 -2 8 C-1.34 8.66 -0.68 9.32 0 10 C-0.99 10.66 -1.98 11.32 -3 12 C-4.34270821 13.99371825 -5.67653494 15.9934562 -7 18 C-7.66 18.33 -8.32 18.66 -9 19 C-8.39443058 14.52551484 -6.67133996 11.18332894 -4.5 7.25 C-3.8709375 6.10015625 -3.241875 4.9503125 -2.59375 3.765625 C-1 1 -1 1 0 0 Z " fill="#A6A3A3" transform="translate(87,123)"/>
<path d="M0 0 C0.99 0.66 1.98 1.32 3 2 C-0.96 5.96 -4.92 9.92 -9 14 C-9.33 13.01 -9.66 12.02 -10 11 C-8.1875 8.3125 -8.1875 8.3125 -6 6 C-5.34 6 -4.68 6 -4 6 C-4.33 4.68 -4.66 3.36 -5 2 C-4.34 1.67 -3.68 1.34 -3 1 C-3 1.66 -3 2.32 -3 3 C-2.01 2.01 -1.02 1.02 0 0 Z " fill="#444F33" transform="translate(272,113)"/>
<path d="M0 0 C0 4.31618166 -2.13270348 5.92789659 -5 9 C-5.66 9 -6.32 9 -7 9 C-7 9.66 -7 10.32 -7 11 C-7.66 11 -8.32 11 -9 11 C-9.12375 11.78375 -9.2475 12.5675 -9.375 13.375 C-10 16 -10 16 -12 18 C-12.99 18 -13.98 18 -15 18 C-13.63055898 15.05043472 -12.12169591 12.47531189 -10 10 C-9.34 10 -8.68 10 -8 10 C-7.79375 9.46375 -7.5875 8.9275 -7.375 8.375 C-5.42003056 4.9982346 -2.81776305 2.69525161 0 0 Z " fill="#908D8D" transform="translate(124,74)"/>
<path d="M0 0 C0.33 0.66 0.66 1.32 1 2 C0 5 0 5 -3 7 C-3.33 7.99 -3.66 8.98 -4 10 C-3.34 10 -2.68 10 -2 10 C-2.33 10.66 -2.66 11.32 -3 12 C-3.99 12.33 -4.98 12.66 -6 13 C-6 12.34 -6 11.68 -6 11 C-8.31 12.98 -10.62 14.96 -13 17 C-13.66 16.67 -14.32 16.34 -15 16 C-14.08476562 15.09636719 -13.16953125 14.19273438 -12.2265625 13.26171875 C-11.02590942 12.07044577 -9.82539585 10.87903217 -8.625 9.6875 C-8.02171875 9.09259766 -7.4184375 8.49769531 -6.796875 7.88476562 C-6.21679688 7.30791016 -5.63671875 6.73105469 -5.0390625 6.13671875 C-4.50490723 5.60780029 -3.97075195 5.07888184 -3.42041016 4.53393555 C-1.78498535 2.8489902 -1.78498535 2.8489902 0 0 Z " fill="#E2E4DC" transform="translate(282,106)"/>
<path d="M0 0 C0.66 0 1.32 0 2 0 C1.979375 1.11375 1.95875 2.2275 1.9375 3.375 C1.73619282 6.83215921 1.73619282 6.83215921 3 9 C1.35 9.66 -0.3 10.32 -2 11 C-2.33 15.62 -2.66 20.24 -3 25 C-3.33 25 -3.66 25 -4 25 C-4.33 18.73 -4.66 12.46 -5 6 C-3.02 6.99 -3.02 6.99 -1 8 C-0.67 5.36 -0.34 2.72 0 0 Z " fill="#878D7B" transform="translate(168,186)"/>
<path d="M0 0 C2.125 0.9375 2.125 0.9375 4 2 C2.52307692 6.67692308 2.52307692 6.67692308 -0.125 8.3125 C-1.053125 8.6528125 -1.053125 8.6528125 -2 9 C-2.66 8.34 -3.32 7.68 -4 7 C-3.39816251 4.97954558 -2.72693904 2.97888961 -2 1 C-1.34 0.67 -0.68 0.34 0 0 Z " fill="#DCD9D7" transform="translate(436,357)"/>
<path d="M0 0 C1.90389849 2.85584773 2.69462177 4.9311762 3.625 8.1875 C3.88539063 9.08855469 4.14578125 9.98960937 4.4140625 10.91796875 C4.60742188 11.60503906 4.80078125 12.29210937 5 13 C4.01 13.66 3.02 14.32 2 15 C1.27302439 13.25766175 0.56901756 11.50572655 -0.125 9.75 C-0.51945313 8.77546875 -0.91390625 7.8009375 -1.3203125 6.796875 C-2 4 -2 4 -1.1171875 1.640625 C-0.74851563 1.09921875 -0.37984375 0.5578125 0 0 Z " fill="#616555" transform="translate(151,147)"/>
<path d="M0 0 C0.33 0.66 0.66 1.32 1 2 C0.51789063 2.54269531 0.03578125 3.08539063 -0.4609375 3.64453125 C-1.09257812 4.35996094 -1.72421875 5.07539062 -2.375 5.8125 C-3.00148438 6.52019531 -3.62796875 7.22789063 -4.2734375 7.95703125 C-6.140599 10.08803819 -6.140599 10.08803819 -8 13 C-9.32 12.67 -10.64 12.34 -12 12 C-8.04 8.04 -4.08 4.08 0 0 Z " fill="#475035" transform="translate(276,119)"/>
<path d="M0 0 C0.33 0.99 0.66 1.98 1 3 C0.67 3.66 0.34 4.32 0 5 C2.31 5.66 4.62 6.32 7 7 C7 7.33 7 7.66 7 8 C-1.57142857 8.14285714 -1.57142857 8.14285714 -5 7 C-3.70700306 4.11562221 -2.34058637 2.12780579 0 0 Z " fill="#5C6350" transform="translate(135,138)"/>
<path d="M0 0 C-0.66 1.65 -1.32 3.3 -2 5 C-3.58367747 4.85795259 -5.16693318 4.71119847 -6.75 4.5625 C-7.63171875 4.48128906 -8.5134375 4.40007813 -9.421875 4.31640625 C-11.69350452 4.03761535 -13.79851823 3.61209423 -16 3 C-14.27318563 2.49193553 -12.54342021 1.99389533 -10.8125 1.5 C-9.84957031 1.2215625 -8.88664063 0.943125 -7.89453125 0.65625 C-5.14654124 0.03322392 -2.80401584 -0.12302812 0 0 Z " fill="#B9B5B4" transform="translate(238,17)"/>
<path d="M0 0 C2.97 0.495 2.97 0.495 6 1 C5.814375 1.94875 5.62875 2.8975 5.4375 3.875 C4.71313368 6.89868793 4.71313368 6.89868793 6 9 C3.11562221 7.70700306 1.12780579 6.34058637 -1 4 C-0.34 4 0.32 4 1 4 C0.67 2.68 0.34 1.36 0 0 Z " fill="#D3D0CE" transform="translate(159,402)"/>
<path d="M0 0 C2.04119788 1.61594832 4.04072937 3.2856382 6 5 C6 5.66 6 6.32 6 7 C1.545 8.485 1.545 8.485 -3 10 C-2.67 9.01 -2.34 8.02 -2 7 C-1.01 7 -0.02 7 1 7 C0.67 4.69 0.34 2.38 0 0 Z " fill="#4E5642" transform="translate(174,199)"/>
<path d="M0 0 C-0.33 0.99 -0.66 1.98 -1 3 C-1.99 2.67 -2.98 2.34 -4 2 C-4 2.66 -4 3.32 -4 4 C-4.99 4.33 -5.98 4.66 -7 5 C-7.66 5.66 -8.32 6.32 -9 7 C-11.625 6.625 -11.625 6.625 -14 6 C-9.59471979 2.44188906 -5.75487737 0 0 0 Z " fill="#A4A2A0" transform="translate(191,31)"/>
<path d="M0 0 C2.475 0.99 2.475 0.99 5 2 C3.02 4.97 3.02 4.97 1 8 C1.66 8.33 2.32 8.66 3 9 C1.68 9 0.36 9 -1 9 C-0.67 6.03 -0.34 3.06 0 0 Z " fill="#414931" transform="translate(162,182)"/>
<path d="M0 0 C3.3 0.33 6.6 0.66 10 1 C8.86695008 4.39914975 7.87481525 5.05254451 5 7 C5 5.68 5 4.36 5 3 C2.03 2.505 2.03 2.505 -1 2 C-0.67 1.34 -0.34 0.68 0 0 Z " fill="#4E5540" transform="translate(299,77)"/>
<path d="M0 0 C1.23556641 0.01740234 1.23556641 0.01740234 2.49609375 0.03515625 C3.32238281 0.04417969 4.14867187 0.05320313 5 0.0625 C5.63808594 0.07410156 6.27617187 0.08570313 6.93359375 0.09765625 C7.26359375 1.08765625 7.59359375 2.07765625 7.93359375 3.09765625 C6.67546875 3.13890625 5.41734375 3.18015625 4.12109375 3.22265625 C3.41339844 3.24585938 2.70570313 3.2690625 1.9765625 3.29296875 C-0.06640625 3.09765625 -0.06640625 3.09765625 -3.06640625 1.09765625 C-2.06640625 0.09765625 -2.06640625 0.09765625 0 0 Z " fill="#FAFBF5" transform="translate(204.06640625,152.90234375)"/>
<path d="M0 0 C2.16321167 3.24481751 3.6314591 6.35055759 5 10 C4.67 10.99 4.34 11.98 4 13 C3.38125 12.01 2.7625 11.02 2.125 10 C1.42375 9.01 0.7225 8.02 0 7 C-0.66 7 -1.32 7 -2 7 C-1.34 4.69 -0.68 2.38 0 0 Z " fill="#ACAAA9" transform="translate(469,144)"/>
<path d="M0 0 C0 0.33 0 0.66 0 1 C-5.94 0.67 -11.88 0.34 -18 0 C-18 -0.33 -18 -0.66 -18 -1 C-5.33029613 -2.51708428 -5.33029613 -2.51708428 0 0 Z " fill="#CACCBF" transform="translate(236,70)"/>
<path d="M0 0 C1 3 1 3 0.4375 5.125 C-1 7 -1 7 -4.125 7.75 C-5.548125 7.87375 -5.548125 7.87375 -7 8 C-6.02133662 6.85373678 -5.04205413 5.70800212 -4.0625 4.5625 C-3.51722656 3.92441406 -2.97195312 3.28632812 -2.41015625 2.62890625 C-1.63204305 1.73008851 -0.84063472 0.84063472 0 0 Z " fill="#535C44" transform="translate(169,103)"/>
<path d="M0 0 C0.33 1.32 0.66 2.64 1 4 C-1.3125 6.0625 -1.3125 6.0625 -4 8 C-4.99 7.67 -5.98 7.34 -7 7 C-4.69 4.69 -2.38 2.38 0 0 Z " fill="#545D45" transform="translate(195,76)"/>
<path d="M0 0 C1.33333333 1.33333333 2.66666667 2.66666667 4 4 C4.33 3.01 4.66 2.02 5 1 C5.33 1.66 5.66 2.32 6 3 C4.02 5.97 4.02 5.97 2 9 C0.25165733 6.377486 -0.51529754 5.00515522 -1 2 C-0.67 1.34 -0.34 0.68 0 0 Z " fill="#BAB6B5" transform="translate(458,321)"/>
<path d="M0 0 C2.6855594 2.6855594 3.06049974 5.37621328 4 9 C3.01 9 2.02 9 1 9 C0.67 9.66 0.34 10.32 0 11 C-0.125 5.25 -0.125 5.25 1 3 C0.34 2.67 -0.32 2.34 -1 2 C-0.67 1.34 -0.34 0.68 0 0 Z " fill="#4C563C" transform="translate(284,132)"/>
<path d="M0 0 C0.99 0.33 1.98 0.66 3 1 C0.92856799 5.03384128 -0.96615872 6.92856799 -5 9 C-5 8.01 -5 7.02 -5 6 C-4.34 6 -3.68 6 -3 6 C-2.690625 5.38125 -2.38125 4.7625 -2.0625 4.125 C-1.375 2.75 -0.6875 1.375 0 0 Z " fill="#3F492F" transform="translate(255,130)"/>
<path d="M0 0 C-0.66 1.65 -1.32 3.3 -2 5 C-4.31 5.33 -6.62 5.66 -9 6 C-3.15384615 0 -3.15384615 0 0 0 Z " fill="#ABA8A5" transform="translate(160,47)"/>
<path d="M0 0 C1.9451 2.91765 2.45276317 4.62537285 3 8 C1.68 7.67 0.36 7.34 -1 7 C-1.625 4.625 -1.625 4.625 -2 2 C-1.34 1.34 -0.68 0.68 0 0 Z " fill="#666C5C" transform="translate(161,174)"/>
<path d="M0 0 C2.3828125 -0.29296875 2.3828125 -0.29296875 5.125 -0.1875 C6.03507813 -0.16042969 6.94515625 -0.13335937 7.8828125 -0.10546875 C8.58148438 -0.07066406 9.28015625 -0.03585938 10 0 C10 0.33 10 0.66 10 1 C8.02 1.33 6.04 1.66 4 2 C4.66 2.66 5.32 3.32 6 4 C3.36 3.67 0.72 3.34 -2 3 C-1.34 2.01 -0.68 1.02 0 0 Z " fill="#E6E8E2" transform="translate(198,152)"/>
<path d="M0 0 C0.99 0.33 1.98 0.66 3 1 C2.6875 2.875 2.6875 2.875 2 5 C1.01 5.66 0.02 6.32 -1 7 C-1.33 5.02 -1.66 3.04 -2 1 C-1.34 0.67 -0.68 0.34 0 0 Z " fill="#384727" transform="translate(218,195)"/>
<path d="M0 0 C2 1.125 2 1.125 4 3 C4.25 6.1875 4.25 6.1875 4 9 C1.47740939 7.02579865 1.0070192 6.03254358 0.3125 2.8125 C0.209375 1.884375 0.10625 0.95625 0 0 Z " fill="#4D5141" transform="translate(157,168)"/>
<path d="M0 0 C0.33 0.66 0.66 1.32 1 2 C0.67 2.99 0.34 3.98 0 5 C-0.66 5 -1.32 5 -2 5 C-2 5.99 -2 6.98 -2 8 C-3.32 7.67 -4.64 7.34 -6 7 C-4.02 4.69 -2.04 2.38 0 0 Z " fill="#525B43" transform="translate(161,111)"/>
<path d="M0 0 C0.66 0 1.32 0 2 0 C1.42655063 2.86724686 1.1385485 3.8614515 -1 6 C-1.99 6 -2.98 6 -4 6 C-2.84826645 3.53199953 -1.95216435 1.95216435 0 0 Z " fill="#BBB8B6" transform="translate(113,86)"/>
<path d="M0 0 C0.33 0.66 0.66 1.32 1 2 C1.66 2.33 2.32 2.66 3 3 C0.377486 4.74834267 -0.99484478 5.51529754 -4 6 C-4.66 5.67 -5.32 5.34 -6 5 C-4.02 3.35 -2.04 1.7 0 0 Z " fill="#B4AFAE" transform="translate(140,60)"/>
<path d="M0 0 C3.3 0.33 6.6 0.66 10 1 C10 1.33 10 1.66 10 2 C8.02 2 6.04 2 4 2 C4 2.99 4 3.98 4 5 C3.01 4.67 2.02 4.34 1 4 C1.33 3.01 1.66 2.02 2 1 C1.34 0.67 0.68 0.34 0 0 Z " fill="#999696" transform="translate(303,16)"/>
<path d="M0 0 C3.375 0.6875 3.375 0.6875 7 2 C8.4375 4.625 8.4375 4.625 9 7 C5.18315774 5.44499019 2.80804268 2.96404505 0 0 Z " fill="#8B8786" transform="translate(133,388)"/>
<path d="M0 0 C0.33 0.66 0.66 1.32 1 2 C-1.47812494 5.45167403 -2.79606135 7.23163306 -7 8 C-6.02133662 6.85373678 -5.04205413 5.70800212 -4.0625 4.5625 C-3.51722656 3.92441406 -2.97195312 3.28632813 -2.41015625 2.62890625 C-1.63204305 1.73008851 -0.84063472 0.84063472 0 0 Z " fill="#59604B" transform="translate(143,130)"/>
<path d="M0 0 C0.6875 1.75 0.6875 1.75 1 4 C-0.3125 6.25 -0.3125 6.25 -2 8 C-2.66 8 -3.32 8 -4 8 C-2.87548273 5.0280615 -1.77706209 2.66559313 0 0 Z " fill="#9B9897" transform="translate(87,123)"/>
<path d="M0 0 C0.99 0.99 1.98 1.98 3 3 C2.34 4.32 1.68 5.64 1 7 C1.66 7.33 2.32 7.66 3 8 C2.34 8.66 1.68 9.32 1 10 C0.63720544 8.71073008 0.28503302 7.41846728 -0.0625 6.125 C-0.35833984 5.04605469 -0.35833984 5.04605469 -0.66015625 3.9453125 C-1 2 -1 2 0 0 Z " fill="#ECECE5" transform="translate(284,124)"/>
<path d="M0 0 C-1.36983503 3.16115776 -1.9890638 3.9927092 -5 6 C-5.33 5.01 -5.66 4.02 -6 3 C-3.375 0 -3.375 0 0 0 Z " fill="#4F5841" transform="translate(281,107)"/>
<path d="M0 0 C0.33 1.32 0.66 2.64 1 4 C-0.8125 5.5625 -0.8125 5.5625 -3 7 C-3.99 6.67 -4.98 6.34 -6 6 C-4.02 4.02 -2.04 2.04 0 0 Z " fill="#4E563F" transform="translate(176,96)"/>
<path d="M0 0 C0.99 0.33 1.98 0.66 3 1 C-0.465 3.97 -0.465 3.97 -4 7 C-3.04065919 3.16263678 -2.76390737 2.40339772 0 0 Z " fill="#4B533C" transform="translate(298,87)"/>
<path d="M0 0 C1.32 0 2.64 0 4 0 C4.33 2.64 4.66 5.28 5 8 C2.27573689 5.64722731 1.1858237 3.37503669 0 0 Z " fill="#928E8E" transform="translate(83,324)"/>
<path d="M0 0 C-1 2 -2 4 -3 6 C-4.32 5.67 -5.64 5.34 -7 5 C-2.25 0 -2.25 0 0 0 Z " fill="#4F573F" transform="translate(271,126)"/>
</svg>
